<?xml version="1.0" encoding="utf-8"?>
<!-- Generator: Adobe Illustrator 16.0.0, SVG Export Plug-In . SVG Version: 6.00 Build 0)  -->
<!DOCTYPE svg PUBLIC "-//W3C//DTD SVG 1.1//EN" "http://www.w3.org/Graphics/SVG/1.1/DTD/svg11.dtd">
<svg version="1.1" id="Layer_1" xmlns="http://www.w3.org/2000/svg" xmlns:xlink="http://www.w3.org/1999/xlink" x="0px" y="0px"
	 width="100px" height="100px" viewBox="0 0 100 100" enable-background="new 0 0 100 100" xml:space="preserve">
<path fill="#FFFFFF" stroke="#010101" stroke-width="1.5" stroke-miterlimit="10" d="M32.637,57.928
	c-2.459,0.197-3.693,3.655-3.693,3.655s-4.683-0.494-5.35-0.161S23.5,65.25,23.5,65.25s-3.503,0.982-3.585,1.658
	s3.168,3.426,3.168,3.426S22.5,74.206,22.5,74.687s4.833,1.563,4.833,1.563s0.105,3,0.678,3.5s4.905,0.006,4.905,0.006
	s1.221,2.578,1.763,2.994s3.821-1.333,3.821-1.333s3.131,3.095,3.798,3.095s2.16-3.345,2.16-3.345s2.904,0.375,3.557,0.458
	s0.756-3.541,0.756-3.541s1.736-1.726,1.979-2.726s-2.736-2.946-2.736-2.946s1.786-1.948,0.758-2.828S35.096,57.73,32.637,57.928z"
	/>
<path fill="#E63D3C" d="M27.969,75.687c0,0-0.26,3.159,0.475,3.521C29.117,79.54,33.333,79,33.333,79s14.198-0.938,14.729-1.188
	s1.938-1.906,2.062-2.469s-2.148-2.446-2.926-2.746C46.083,72.167,27.969,75.687,27.969,75.687z"/>
<path fill="#E63D3C" d="M33.5,64.75l-9.334,1.042c0,0-3.51,0.833-3.51,1.333s3.312,3.031,3.312,3.031L31,70.334l2.334-2.75
	L33.5,64.75z"/>
<path fill="#EAD9C2" stroke="#010101" stroke-width="1.75" stroke-miterlimit="10" d="M35,62.167c0,0-4.583,4.083-5.5,7
	s7.25,7.5,9.583,6.333s5.222-5.833,5.222-5.833L35,62.167z"/>
<path fill="#EADBBE" stroke="#010101" stroke-width="1.5" stroke-miterlimit="10" d="M36,61.167c0,0-4.583,4.083-5.5,7
	s7.25,7.5,9.583,6.333s5.222-5.833,5.222-5.833L36,61.167z"/>
<path fill="#4574BA" stroke="#010101" stroke-width="1.5" stroke-miterlimit="10" d="M31.333,34.583c0,0,8.167-19.583,9.5-19.833
	s14.75,16.583,14.75,16.583L31.333,34.583z"/>
<path fill="#010101" stroke="#010101" stroke-width="1.25" stroke-miterlimit="10" d="M63.09,55c0,8.881-6.193,15.334-16.25,15.334
	c-8.208,0-17.412-7.824-17.412-16.707c0-8.882,8.514-16.293,18.562-16.684c8.447-0.329,12.738,3.177,14.39,8.141
	C63.373,48.062,63.09,51.668,63.09,55z"/>
<path fill="#EAD9C2" stroke="#010101" stroke-width="2" stroke-miterlimit="10" d="M30.625,53.812c-0.562-1.188-1.562-2.188-3-2.062
	s-2.001,1.253-2,2.878c0.001,1.231,0.667,2.353,1.667,3.372c1,1.02,3.021,1.668,3.646,0.562S31.188,55,30.625,53.812z"/>
<path fill="#EADBBE" stroke="#010101" stroke-width="1.5" stroke-miterlimit="10" d="M64.584,56c0,8.882-6.193,15.334-16.25,15.334
	c-8.208,0-17.411-7.824-17.411-16.706c0-8.883,8.514-16.294,18.562-16.685c8.447-0.329,12.738,3.177,14.391,8.141
	C64.866,49.062,64.584,52.669,64.584,56z"/>
<path fill="#EADBBE" stroke="#010101" stroke-width="0.75" stroke-miterlimit="10" d="M30.625,53.812
	c-0.562-1.188-1.562-2.188-3-2.062s-2.001,1.253-2,2.878c0.001,1.23,0.667,2.353,1.667,3.372s3.021,1.668,3.646,0.562
	S31.188,55,30.625,53.812z"/>
<path fill="#010101" d="M30.406,54.812c0,0.396-0.213,0.623-0.859,0.561c-1.485-0.248-0.047,1.408-0.891,1.502
	s-1.704-1.005-1.642-1.854s0.692-1.156,1.642-1.156S30.406,54.312,30.406,54.812z"/>
<path fill="#010101" stroke="#010101" stroke-width="1.5" stroke-miterlimit="10" d="M31.553,42.61
	c2.527-1.333,4.833-1.842,8.5-2.837s8.749-1.663,11.333-1.829c2.584-0.167,7.668,0.583,9.334,1.25s3.916,3.167,3.916,3.167
	s1.416,1.417,1.5,2.167s0.133,1.184-1.307,1.408c-0.955,0.148-2.354-4.52-5.414-6.102S41,39.5,36.167,42.917
	c-3.048,2.155-4.23,4.905-4.833,7.089c-0.353,1.278-0.906,2.583-0.906,2.583s-1.556-1.548-2.484-1.548s-3.068,1.896-3.068,1.896
	l-2.792-2.932C22.083,50.006,29.026,43.943,31.553,42.61z"/>
<path fill="#4574BA" stroke="#010101" stroke-width="2" stroke-miterlimit="10" d="M23.583,50c-1.75,0.167-4.75-3.333-4.667-5.333
	s4.163-5.34,6.163-6.923s7.554-4.978,16.638-6.561s18.115-0.093,20.591,0.809c2.206,0.803,6.166,2.009,7.25,5.759
	c1.083,3.75-4.068,8.742-4.068,8.742s-0.823-4.742-3.656-6.742c-2.834-2-7.183-2.057-12.35-1.807S39.833,38.583,35,40.833
	S25.333,49.833,23.583,50z"/>
<circle fill="#010101" stroke="#010101" stroke-width="0.5" stroke-miterlimit="10" cx="38.667" cy="49.917" r="1.833"/>
<circle fill="#010101" stroke="#010101" stroke-width="0.25" stroke-miterlimit="10" cx="59.667" cy="47.917" r="1.833"/>
<path fill="#010101" stroke="#010101" stroke-miterlimit="10" d="M45.437,65.458C45.354,63.875,46.521,63,47.604,63
	s0.749,0.333,3.666,0s3.455-1.316,4-0.833s0.356,1.151-0.386,2.34s-2.426,2.811-4.416,3.271
	C48.062,68.333,45.52,67.041,45.437,65.458z"/>
<ellipse opacity="0.8" fill="#E63D3C" cx="39.5" cy="58.27" rx="3.625" ry="3.642"/>
<path opacity="0.8" fill="#E63D3C" d="M62.957,61.422c-1.078-0.547-1.848-1.619-1.975-2.882c-0.013-0.122,1.012-0.079,1.012-0.079
	l1.824-0.084c0,0-0.184,1.188-0.371,1.725S62.989,61.438,62.957,61.422z"/>
<linearGradient id="SVGID_1_" gradientUnits="userSpaceOnUse" x1="49.7808" y1="55.0156" x2="81.1318" y2="55.0156">
	<stop  offset="0.1516" style="stop-color:#EADBBE"/>
	<stop  offset="0.1841" style="stop-color:#EBD3B8"/>
	<stop  offset="0.3035" style="stop-color:#ECB6A3"/>
	<stop  offset="0.3984" style="stop-color:#EDA597"/>
	<stop  offset="0.4562" style="stop-color:#EE9E93"/>
</linearGradient>
<path fill="url(#SVGID_1_)" stroke="#010101" stroke-width="1.25" stroke-miterlimit="10" d="M49.781,51.839
	c0,0,27.136-0.425,29.625,0.479c2.22,0.807,2.637,4.266-0.781,4.682c-3.734,0.455-28.844,1.293-28.844,1.293V51.839z"/>
<path fill="#EADBBE" d="M51.125,54.84c0,2.433-0.522,4.405-1.167,4.405c-0.1,0-1.197-0.048-1.29-0.138
	c-0.503-0.486-0.876-2.213-0.876-4.268c0-2.044,0.369-3.762,0.868-4.26c0.096-0.095,1.196-0.146,1.299-0.146
	C50.603,50.434,51.125,52.406,51.125,54.84z"/>
<path fill="#010101" d="M47,46.375c0.261-0.465-3.25-4.125-7.154-3.763c-2.406,0.223-3.715,0.51-5.224,0.841
	s-4.296,4.527-3.999,5.83c0.297,1.301,3.236-4.342,8.042-4.861C42.802,43.674,46.739,46.84,47,46.375z"/>
<path fill="#010101" d="M54.607,45.75c-0.262-0.465,2.381-3.643,5.727-3.447C62.746,42.444,65.25,44,65.25,44l-0.629,3.917
	c0,0,0.004-0.917-1.121-2.354s-2.127-1.719-4.166-1.688S54.869,46.215,54.607,45.75z"/>
<path fill="#EDECED" d="M43.742,18.474c0.171,0.011,0.812,1.712,0.812,1.712l0.96,0.206l0.559,0.637l-1.086,0.937
	c0,0,0.304,1.837,0.128,1.889c-0.175,0.052-1.663-0.922-1.663-0.922s-1.633,0.803-1.768,0.7c-0.134-0.102,0.371-1.856,0.371-1.856
	s-1.226-1.299-1.214-1.47c0.011-0.172,1.904-0.237,1.904-0.237S43.57,18.463,43.742,18.474z"/>
<path fill="#EDECED" d="M42.868,26.977c0.171,0.011,0.812,1.712,0.812,1.712s1.793,0.351,1.833,0.478
	c0.023,0.077-0.485,0.386-0.893,0.619c-0.128,0.074-0.972,0.109-1.699,0.199s-1.739,0.295-1.739,0.295s-1.226-1.299-1.214-1.47
	c0.011-0.172,1.904-0.237,1.904-0.237S42.696,26.965,42.868,26.977z"/>
<path fill="#EDECED" d="M36.66,24.279c0.443,0.09,1.571,0.328,1.604,0.432c0.039,0.128-1.399,1.302-1.399,1.302
	s0.304,1.837,0.128,1.889c-0.15,0.044-1.271-0.668-1.583-0.87C35.358,27,36.559,24.259,36.66,24.279z"/>
<path fill="#EDECED" d="M52.369,28.628c0.041,0.48,0.01,0.705-0.08,0.731c-0.176,0.052-1.664-0.922-1.664-0.922
	s-1.633,0.803-1.768,0.7c-0.134-0.102,0.371-1.856,0.371-1.856s-1.226-1.299-1.214-1.47c0.011-0.172,1.904-0.237,1.904-0.237
	S52.35,28.383,52.369,28.628z"/>
<path fill="#EDECED" d="M26.493,41.291c0.171,0.011,0.812,1.712,0.812,1.712s1.793,0.351,1.833,0.478
	c0.039,0.129-1.399,1.303-1.399,1.303l0.052,0.337l-0.979,0.989l-0.608-0.359c0,0-1.633,0.803-1.768,0.699
	c-0.134-0.102,0.371-1.855,0.371-1.855s-1.226-1.3-1.214-1.471c0.011-0.172,1.904-0.237,1.904-0.237S26.321,41.279,26.493,41.291z"
	/>
<path fill="#EDECED" d="M34.806,36.291c0.171,0.011,0.812,1.712,0.812,1.712s1.793,0.351,1.833,0.478
	c0.01,0.032-0.699,0.532-0.699,0.532s-1.428,0.556-2.158,0.894c-0.653,0.303-1.828,1.047-1.828,1.047l0.354-1.359
	c0,0-1.226-1.3-1.214-1.471c0.011-0.172,1.904-0.237,1.904-0.237S34.634,36.279,34.806,36.291z"/>
<path fill="#EDECED" d="M45.197,34.23c0.171,0.011,0.812,1.712,0.812,1.712s1.793,0.351,1.833,0.478
	c0.019,0.062-0.64,0.661-0.64,0.661l-3.745,0.329c0,0-1.172-1.176-1.16-1.347c0.011-0.172,1.904-0.237,1.904-0.237
	S45.025,34.218,45.197,34.23z"/>
<path fill="#EDECED" d="M55.493,33.917c0.171,0.011,0.812,1.712,0.812,1.712s1.793,0.351,1.833,0.478
	c0.025,0.085-1.02,0.986-1.02,0.986l-3.669-0.26c0,0-0.864-0.973-0.856-1.083c0.011-0.172,1.904-0.237,1.904-0.237
	S55.321,33.905,55.493,33.917z"/>
<path fill="#EDECED" d="M64.556,36.921c0.171,0.011,0.812,1.712,0.812,1.712s1.793,0.351,1.833,0.478
	c0.039,0.129-1.399,1.303-1.399,1.303s0.304,1.837,0.128,1.889c-0.105,0.03-1.132-0.585-1.132-0.585s-0.239-0.613-1.032-1.471
	s-1.807-1.603-1.807-1.603l1.602-0.127C63.561,38.516,64.384,36.909,64.556,36.921z"/>
</svg>
