<?xml version="1.0" encoding="utf-8"?>
<!-- Generator: Adobe Illustrator 15.1.0, SVG Export Plug-In . SVG Version: 6.00 Build 0)  -->
<!DOCTYPE svg PUBLIC "-//W3C//DTD SVG 1.1//EN" "http://www.w3.org/Graphics/SVG/1.1/DTD/svg11.dtd">
<svg version="1.1" id="Capa_1" xmlns="http://www.w3.org/2000/svg" xmlns:xlink="http://www.w3.org/1999/xlink" x="0px" y="0px"
	 width="350px" height="350px" viewBox="0 0 350 350" enable-background="new 0 0 350 350" xml:space="preserve">
<rect fill="#888888" width="350" height="350"/>
<path fill="#777777" d="M350,314.898c-25.151-22.843-66.808-39.909-81.363-42.229c-6.646-1.078-6.836-19.355-6.836-19.355
	s19.559-19.34,23.8-45.324c11.472,0,18.554-27.641,7.099-37.392c0.48-10.224,14.719-80.376-57.395-80.376
	c-72.113,0-57.874,70.152-57.393,80.376c-11.47,9.751-4.4,37.392,7.055,37.392c4.27,25.984,23.813,45.324,23.813,45.324
	s-0.161,18.277-6.806,19.355c-21.409,3.41-101.379,38.68-101.379,77.331H350V314.898z"/>
<path fill="#CCCCCC" d="M214.892,258.408c-7.871-1.276-8.096-22.924-8.096-22.924s23.165-22.906,28.188-53.683
	c13.587,0,21.975-32.738,8.407-44.287c0.569-12.109,17.434-95.198-67.977-95.198c-85.412,0-68.547,83.089-67.977,95.198
	c-13.586,11.549-5.212,44.287,8.354,44.287c5.057,30.776,28.206,53.683,28.206,53.683s-0.191,21.647-8.061,22.924
	C110.58,262.447,15.864,304.222,15.864,350h319.083C334.947,304.222,240.233,262.447,214.892,258.408L214.892,258.408
	L214.892,258.408z"/>
</svg>
