<?xml version="1.0" standalone="no"?>
<!DOCTYPE svg PUBLIC "-//W3C//DTD SVG 1.1//EN" "http://www.w3.org/Graphics/SVG/1.1/DTD/svg11.dtd" >
<svg xmlns="http://www.w3.org/2000/svg">
<metadata></metadata>
<defs>
<font id="museo_sans300" horiz-adv-x="1062" >
<font-face units-per-em="2048" ascent="1536" descent="-512" />
<missing-glyph horiz-adv-x="566" />
<glyph horiz-adv-x="2109" />
<glyph horiz-adv-x="2109" />
<glyph unicode="&#xd;" horiz-adv-x="2109" />
<glyph unicode=" "  horiz-adv-x="566" />
<glyph unicode="&#x09;" horiz-adv-x="566" />
<glyph unicode="&#xa0;" horiz-adv-x="566" />
<glyph unicode="!" horiz-adv-x="646" d="M245 0v163h162v-163h-162zM249 1483h148l-7 -1095h-135z" />
<glyph unicode="&#x22;" horiz-adv-x="670" d="M145 1147v357h125v-357h-125zM401 1147v357h124v-357h-124z" />
<glyph unicode="#" horiz-adv-x="1526" d="M99 411l22 118h297l73 413h-297l19 119h300l73 422h129l-73 -422h364l74 422h129l-74 -422h296l-22 -119h-296l-71 -413h293l-19 -118h-295l-71 -411h-129l71 411h-365l-72 -411h-128l72 411h-300zM548 529h364l73 413h-365z" />
<glyph unicode="$" horiz-adv-x="1174" d="M129 165l88 111q7 -6 18.5 -17.5t50.5 -39t81.5 -49t107.5 -39t131 -17.5q125 0 209.5 69.5t84.5 187.5q0 73 -41 130t-107 96t-145.5 73.5t-158.5 73t-145 84.5t-107.5 118t-41.5 163q0 148 107.5 259.5t280.5 133.5v201h118v-197q64 -3 124 -19t99.5 -36t70 -39.5 t44.5 -33.5l14 -13l-72 -123q-5 5 -15 14t-43 30.5t-68.5 38t-89.5 30.5t-108 14q-138 0 -225 -76.5t-87 -179.5q0 -54 25 -98.5t68.5 -76.5t99.5 -60t118 -54.5t123 -54.5t117.5 -65t99.5 -81t68.5 -107.5t25.5 -139.5q0 -158 -105.5 -268.5t-283.5 -128.5v-196h-118v196 q-75 7 -145 28t-116.5 47t-82.5 51.5t-53 42.5z" />
<glyph unicode="%" horiz-adv-x="1539" d="M118 1215q0 122 86 207.5t209 85.5q124 0 211 -86t87 -207t-87 -207t-211 -86t-209.5 85.5t-85.5 207.5zM131 0l1131 1483h149l-1129 -1483h-151zM243 1215q0 -73 49 -124t121 -51t122.5 51t50.5 124t-50.5 124t-122.5 51t-121 -51t-49 -124zM831 266q0 122 86 208.5 t209.5 86.5t210 -86.5t86.5 -208.5q0 -121 -86.5 -206.5t-210 -85.5t-209.5 85.5t-86 206.5zM958 268q0 -73 48.5 -124t120.5 -51t122.5 51t50.5 124q0 72 -50.5 123.5t-122.5 51.5t-120.5 -51.5t-48.5 -123.5z" />
<glyph unicode="&#x26;" horiz-adv-x="1421" d="M127 409q0 133 72 242.5t198 147.5v4q-5 1 -12.5 4.5t-28.5 15t-40.5 27t-44 43t-41.5 60t-28.5 79.5t-11.5 101q0 171 121 273t323 102q32 0 74.5 -5t68.5 -11l26 -5l-42 -122q-69 14 -121 14q-129 0 -213.5 -68.5t-84.5 -185.5q0 -34 6 -66.5t27 -70.5t53.5 -66 t92.5 -47t139 -19h312v209h146v-209h200v-130h-200v-217q0 -261 -131.5 -398t-360.5 -137q-220 0 -359.5 123.5t-139.5 311.5zM276 418q0 -131 95.5 -218.5t254.5 -87.5q164 0 255 97.5t91 303.5v213h-312q-188 0 -286 -82.5t-98 -225.5z" />
<glyph unicode="'" horiz-adv-x="415" d="M145 1147v357h125v-357h-125z" />
<glyph unicode="(" horiz-adv-x="610" d="M169 711q0 441 238 829h133q-238 -405 -238 -829q0 -485 238 -912h-133q-112 194 -175 430t-63 482z" />
<glyph unicode=")" horiz-adv-x="608" d="M72 -201q238 421 238 912q0 424 -238 829h133q238 -388 238 -829q0 -246 -63 -482t-175 -430h-133z" />
<glyph unicode="*" horiz-adv-x="992" d="M91 1137l42 133l304 -112l-13 325h144l-15 -325l308 110l42 -129l-313 -90v-5l199 -253l-110 -82l-182 267h-4l-179 -265l-111 80l198 253v5z" />
<glyph unicode="+" horiz-adv-x="1451" d="M175 538v122h487v538h129v-538h485v-122h-485v-538h-129v538h-487z" />
<glyph unicode="," horiz-adv-x="513" d="M76 -205l120 378h158l-155 -378h-123z" />
<glyph unicode="-" horiz-adv-x="1037" d="M219 534v130h600v-130h-600z" />
<glyph unicode="." horiz-adv-x="520" d="M177 0v169h167v-169h-167z" />
<glyph unicode="/" horiz-adv-x="826" d="M87 -89l535 1655h133l-534 -1655h-134z" />
<glyph unicode="0" horiz-adv-x="1318" d="M147 743q0 133 16 244t53.5 209t96 166t146.5 107t201.5 39t201.5 -39t145.5 -107t94.5 -166t53 -209t16 -244q0 -134 -16 -246t-53 -210.5t-94.5 -166t-145.5 -107t-201.5 -39.5t-201.5 39.5t-146.5 107t-96 166t-53.5 210.5t-16 246zM300 742.5q0 -111.5 10 -202 t35.5 -172.5t65.5 -137t103.5 -87t145.5 -32q102 0 173.5 47.5t111.5 136.5t57 197.5t17 249.5q0 140 -17 248t-57 196.5t-111.5 136t-173.5 47.5q-82 0 -145.5 -32t-103.5 -87t-65.5 -136.5t-35.5 -171.5t-10 -201.5z" />
<glyph unicode="1" horiz-adv-x="982" d="M118 0v131h333v1089l2 82h-4q-14 -32 -73 -89l-159 -158l-92 94l334 334h136v-1352h327v-131h-804z" />
<glyph unicode="2" horiz-adv-x="1191" d="M127 95q0 83 25.5 157.5t70 132t101 109.5t120 97t126 87.5t119.5 87.5t101 91.5t70 105t26 122.5q0 123 -85.5 203.5t-222.5 80.5q-61 0 -117.5 -20.5t-93.5 -50.5t-65.5 -60t-41.5 -50l-13 -21l-110 73q5 11 16.5 29.5t51.5 64t87.5 81t127 64.5t166.5 29 q206 0 329 -118t123 -297q0 -101 -41 -188.5t-107.5 -151.5t-146.5 -122.5t-159.5 -112.5t-146 -110t-108.5 -127t-42 -150h774v-131h-926q-8 45 -8 95z" />
<glyph unicode="3" horiz-adv-x="1184" d="M95 177l88 112l18.5 -18.5t50 -41.5t80 -53.5t105 -42.5t126.5 -19q137 0 238.5 91.5t101.5 229.5q0 76 -30.5 137t-83.5 99.5t-119 59t-141 20.5h-101l-36 86l371 435q18 21 37.5 41.5t29.5 30.5l12 10v5q-43 -7 -121 -7h-556v131h866v-97l-443 -510q61 -4 121 -18.5 t123.5 -48t111 -81t78.5 -123t31 -166.5q0 -126 -63 -232t-175.5 -169.5t-249.5 -63.5q-81 0 -159.5 21t-132.5 51t-96 59.5t-62 51.5z" />
<glyph unicode="4" horiz-adv-x="1258" d="M72 411v96l729 976h159v-943h211v-129h-211v-411h-145v411h-743zM249 540h566v620l6 140h-4q-34 -60 -74 -112l-494 -644v-4z" />
<glyph unicode="5" horiz-adv-x="1176" d="M114 185l93 102q4 -7 13 -18t39.5 -41t67 -53.5t94.5 -42t121 -18.5q155 0 262.5 99t107.5 249.5t-108.5 249t-267.5 98.5q-70 0 -137.5 -20t-99.5 -40l-33 -20l-93 33l80 720h717v-131h-590l-42 -380l-16 -84h5q10 6 29.5 16t78.5 26t118 16q221 0 365.5 -140.5 t144.5 -343.5q0 -134 -68 -246.5t-186.5 -177t-260.5 -64.5q-82 0 -157.5 22t-124 52.5t-84.5 62t-52 53.5z" />
<glyph unicode="6" horiz-adv-x="1254" d="M137 671q0 114 23 229t75 225.5t126.5 195t185 136t242.5 51.5q73 0 141 -15.5t100 -29.5l31 -16l-55 -129q-10 7 -29 15.5t-75 23t-111 14.5q-90 0 -167.5 -34t-133 -91.5t-97 -134.5t-64.5 -161t-31 -173h4q53 78 155.5 125.5t219.5 47.5q203 0 332.5 -134.5 t129.5 -344.5q0 -226 -133.5 -361.5t-332.5 -135.5q-159 0 -281.5 90t-188.5 249t-66 358zM296 565q0 -101 46 -204t134.5 -176t194.5 -73q147 0 233 99.5t86 257.5t-92 254t-244 96q-144 0 -251 -80t-107 -174z" />
<glyph unicode="7" horiz-adv-x="1095" d="M80 1352v131h964v-102l-688 -1381h-151l598 1215q18 36 38.5 70t31.5 51l13 16v5q-37 -5 -111 -5h-695z" />
<glyph unicode="8" horiz-adv-x="1268" d="M135 426q0 67 22.5 131.5t52.5 108.5t68 82.5t61 55.5t39 27q-184 123 -184 302q0 73 28 139.5t82 119.5t142 84.5t196 31.5q206 0 329.5 -105.5t123.5 -279.5q0 -73 -25 -147.5t-61.5 -129.5t-58 -82.5t-36.5 -42.5q102 -58 158.5 -134t56.5 -184q0 -177 -140 -303 t-352 -126q-135 0 -248.5 53.5t-183.5 158t-70 240.5zM284 433q0 -145 105.5 -234.5t247.5 -89.5q135 0 238 84t103 212q0 46 -21.5 86t-53 68.5t-85 59.5t-97 50t-113 49t-111.5 49q-18 -11 -39.5 -27t-54.5 -48t-58 -67.5t-43 -87t-18 -104.5zM342 1131q0 -35 11.5 -66.5 t28.5 -55.5t47 -48.5t57.5 -41.5t70.5 -37.5t74.5 -33.5t81.5 -34t80 -33q17 15 37.5 40t49.5 69t48.5 104t19.5 121q0 118 -85 188t-221 70q-138 0 -219 -69.5t-81 -172.5z" />
<glyph unicode="9" horiz-adv-x="1252" d="M116 1012q0 226 132 361t332 135q159 0 281.5 -90t188 -249t65.5 -357q0 -95 -16 -191.5t-49 -190.5t-88 -176t-124.5 -145t-165.5 -99t-207 -36q-73 0 -141.5 15.5t-99.5 31.5l-32 15l55 129q11 -6 30 -15t75 -23.5t110 -14.5q91 0 169 34t133.5 92t96.5 135t65 160.5 t32 173.5h-4q-56 -79 -159 -126t-219 -47q-202 0 -331 134t-129 344zM264 1015q0 -159 91.5 -255t243.5 -96q146 0 252.5 80t106.5 174q0 75 -28.5 155t-76.5 146t-120 109t-151 43q-147 0 -232.5 -99.5t-85.5 -256.5z" />
<glyph unicode=":" horiz-adv-x="618" d="M226 0v169h166v-169h-166zM226 892v169h166v-169h-166z" />
<glyph unicode=";" horiz-adv-x="618" d="M131 -205l103 378h158l-139 -378h-122zM234 892v169h167v-169h-167z" />
<glyph unicode="&#x3c;" horiz-adv-x="1195" d="M105 546v106l954 426v-142l-775 -334v-5l775 -335v-141z" />
<glyph unicode="=" horiz-adv-x="1442" d="M230 354v123h983v-123h-983zM230 721v123h983v-123h-983z" />
<glyph unicode="&#x3e;" horiz-adv-x="1195" d="M137 121v141l775 335v5l-775 334v142l954 -426v-106z" />
<glyph unicode="?" horiz-adv-x="1014" d="M84 1390q6 6 16 13.5t43.5 28t70.5 36.5t94.5 29t115.5 13q182 0 302 -104.5t120 -268.5q0 -71 -21 -131.5t-54.5 -104t-73.5 -82.5t-80 -75t-73.5 -73.5t-54 -86t-20.5 -105.5v-91h-145v95q0 68 21 126.5t53.5 101.5t71.5 81.5t78.5 75t72 74.5t53 86t20.5 103 q0 103 -77.5 172.5t-198.5 69.5q-64 0 -127.5 -22.5t-95.5 -45.5l-32 -23zM316 0v163h163v-163h-163z" />
<glyph unicode="@" horiz-adv-x="1697" d="M137 511q0 159 59.5 302.5t160.5 246.5t239.5 163.5t291.5 60.5q138 0 241 -33t161.5 -90t86.5 -126t28 -149v-665h149v-118h-567q-179 0 -300.5 119.5t-121.5 286.5q0 166 120.5 285.5t301.5 119.5h275q-3 106 -95 176t-269 70q-170 0 -311.5 -88t-222 -237t-80.5 -324 q0 -177 80.5 -325t224 -234.5t320.5 -86.5v-127q-161 0 -305 61t-246 164.5t-161.5 246t-59.5 301.5zM713 511q0 -122 83 -206t204 -84h262v580h-258q-123 0 -207 -85t-84 -205z" />
<glyph unicode="A" horiz-adv-x="1298" d="M28 0l544 1483h156l544 -1483h-154l-170 473h-598l-169 -473h-153zM392 599h511l-194 538q-12 31 -26.5 79t-22.5 80l-8 33h-4q-32 -122 -58 -192z" />
<glyph unicode="B" horiz-adv-x="1320" d="M215 0v1483h506q178 0 290 -101.5t112 -272.5q0 -113 -50 -196t-139 -126v-4q114 -32 181.5 -132.5t67.5 -235.5q0 -193 -126 -304t-318 -111h-524zM360 131h381q133 0 211.5 78t78.5 211q0 132 -81 212.5t-211 80.5h-379v-582zM360 839h361q112 0 181.5 72.5t69.5 187.5 t-68 184t-185 69h-359v-513z" />
<glyph unicode="C" horiz-adv-x="1534" d="M116 751q0 158 57.5 299t155.5 241.5t237 158.5t295 58q99 0 190.5 -19.5t151.5 -48t105 -57t66 -47.5l21 -20l-79 -107q-7 6 -20.5 17.5t-58 40t-93.5 50t-125 39t-154 17.5q-171 0 -308 -82t-213 -223.5t-76 -314.5q0 -176 76 -323t214.5 -234t310.5 -87 q84 0 164.5 20.5t135.5 49.5t97.5 58.5t63.5 49.5l20 21l85 -103q-8 -9 -24 -24.5t-71 -56t-115.5 -70.5t-158 -55t-199.5 -25q-215 0 -387.5 103.5t-268 281.5t-95.5 392z" />
<glyph unicode="D" horiz-adv-x="1560" d="M215 0v1483h479q223 0 390 -86.5t261 -255t94 -398.5q0 -350 -203 -546.5t-542 -196.5h-479zM360 131h319q279 0 443 159.5t164 452.5q0 290 -165 449.5t-442 159.5h-319v-1221z" />
<glyph unicode="E" horiz-adv-x="1204" d="M215 0v1483h836v-131h-691v-540h564v-130h-564v-551h729v-131h-874z" />
<glyph unicode="F" horiz-adv-x="1083" d="M215 0v1483h781v-131h-636v-557h545v-131h-545v-664h-145z" />
<glyph unicode="G" horiz-adv-x="1598" d="M116 743q0 158 57.5 299.5t156 243.5t237.5 162t296 60q97 0 186.5 -18t149 -43.5t104.5 -50.5t67 -43l20 -18l-78 -109q-7 6 -20.5 15.5t-57.5 35t-92 45t-122.5 35.5t-150.5 16q-175 0 -313.5 -83.5t-213 -226.5t-74.5 -318q0 -181 76 -326t210.5 -227.5t301.5 -82.5 q81 0 159 22t131 54t94.5 64.5t61.5 55.5l21 22v251h-254v131h393v-709h-135v112l2 63h-4q-8 -8 -21 -21.5t-59.5 -48t-98 -61t-134.5 -48.5t-170 -22q-200 0 -366.5 99.5t-263 276t-96.5 393.5z" />
<glyph unicode="H" horiz-adv-x="1582" d="M215 0v1483h145v-675h862v675h145v-1483h-145v677h-862v-677h-145z" />
<glyph unicode="I" horiz-adv-x="575" d="M215 0v1483h145v-1483h-145z" />
<glyph unicode="J" horiz-adv-x="1105" d="M74 415v60h145v-55q0 -82 23.5 -144t63 -97.5t86.5 -52.5t99 -17q42 0 79.5 9.5t72.5 32.5t61 57t41.5 87t15.5 120v937h-362v131h508v-1068q0 -115 -36 -203t-96.5 -138t-132.5 -75t-153 -25q-63 0 -121 15t-112 49t-94 84t-64 125t-24 168z" />
<glyph unicode="K" horiz-adv-x="1266" d="M215 0v1483h145v-644h252l398 644h167l-443 -700v-4l472 -779h-170l-424 709h-252v-709h-145z" />
<glyph unicode="L" horiz-adv-x="1091" d="M215 0v1483h145v-1352h689v-131h-834z" />
<glyph unicode="M" horiz-adv-x="1800" d="M169 0l118 1483h152l388 -871q16 -34 33.5 -79.5t27.5 -73.5l10 -28h5q39 105 73 181l389 871h149l119 -1483h-146l-82 1038q-3 36 -4 88v47.5v37.5v33h-4q-45 -130 -79 -206l-348 -762h-137l-348 762q-15 33 -35 85.5t-33 88.5l-12 36h-4q1 -33 1 -61q0 -89 -5 -149 l-83 -1038h-145z" />
<glyph unicode="N" horiz-adv-x="1588" d="M215 0v1483h141l757 -1068q23 -33 53.5 -83t49.5 -83l20 -34h4q-12 122 -12 200v1068h145v-1483h-141l-757 1067q-23 33 -53.5 83.5t-49.5 83.5l-20 34h-4q12 -123 12 -201v-1067h-145z" />
<glyph unicode="O" horiz-adv-x="1737" d="M114 751q0 156 59.5 297.5t160.5 241.5t240.5 159t295 59t295 -59t240.5 -159t160 -241.5t59 -297.5q0 -160 -59 -304t-160 -247.5t-241 -164.5t-294.5 -61t-294.5 61t-241 164.5t-160.5 247.5t-59.5 304zM266 751q0 -134 47 -253t128 -204.5t193 -135t235.5 -49.5 t234.5 50t192 135t129 204t48 253q0 174 -81 317t-219.5 224t-303.5 81q-124 0 -235.5 -48t-192.5 -130t-128 -197.5t-47 -246.5z" />
<glyph unicode="P" horiz-adv-x="1260" d="M215 0v1483h513q202 0 330 -122t128 -325q0 -205 -128 -329.5t-330 -124.5h-368v-582h-145zM360 713h349q150 0 238.5 86t88.5 237q0 148 -88.5 232t-236.5 84h-351v-639z" />
<glyph unicode="Q" horiz-adv-x="1761" d="M114 751q0 157 59 298t159 241t239 159t294 59q158 0 298.5 -59t241.5 -159.5t160 -241t59 -297.5q0 -144 -49 -276.5t-136 -234.5l183 -183l-88 -91l-182 183q-204 -175 -487 -175q-154 0 -293.5 61t-239.5 165t-159 247.5t-59 303.5zM266 751q0 -177 78.5 -325 t216.5 -232.5t304 -84.5q101 0 204.5 37.5t178.5 102.5l-181 186l89 90l179 -183q65 82 101.5 188.5t36.5 220.5q0 174 -80.5 317t-219.5 224t-308 81q-124 0 -235.5 -48t-191.5 -130.5t-126 -197.5t-46 -246z" />
<glyph unicode="R" horiz-adv-x="1324" d="M215 0v1483h439q186 0 278 -40q105 -45 164.5 -146.5t59.5 -235.5q0 -149 -77 -257.5t-203 -143.5v-4q14 -18 38 -59l322 -597h-167l-335 624h-374v-624h-145zM360 755h353q135 0 214 81.5t79 220.5q0 187 -135 259q-67 36 -211 36h-300v-597z" />
<glyph unicode="S" horiz-adv-x="1134" d="M105 165l87 111l17.5 -17.5t51 -39t81.5 -49t107 -39t131 -17.5q126 0 211 69.5t85 187.5q0 60 -25.5 108t-68 82.5t-98.5 64t-117.5 56t-123 53.5t-117 61.5t-98.5 77t-68 102.5t-25 133q0 164 131 281.5t331 117.5q73 0 140 -15t112 -36t79 -41.5t50 -35.5l16 -15 l-72 -123q-5 5 -15.5 14t-43.5 30.5t-68 38t-89 30.5t-109 14q-137 0 -225 -77t-88 -179q0 -56 25.5 -101.5t68 -77.5t98 -59.5t117.5 -53.5t123.5 -52.5t117 -62.5t98 -80.5t68 -108t25.5 -141.5q0 -171 -123 -286.5t-326 -115.5q-86 0 -165.5 19.5t-132.5 47.5t-94 56.5 t-60 47.5z" />
<glyph unicode="T" horiz-adv-x="1240" d="M14 1352v131h1212v-131h-532v-1352h-146v1352h-534z" />
<glyph unicode="U" horiz-adv-x="1526" d="M196 517v966h148v-964q0 -190 113.5 -300t305.5 -110q194 0 308.5 111t114.5 303v960h145v-966q0 -245 -156 -394t-410 -149t-411.5 149t-157.5 394z" />
<glyph unicode="V" horiz-adv-x="1302" d="M26 1483h155l411 -1127q13 -34 27 -81.5t23 -78.5l8 -31h4q29 115 57 191l412 1127h155l-550 -1483h-152z" />
<glyph unicode="W" horiz-adv-x="1954" d="M82 1483h152l287 -1151l34 -159h4q1 0 5 22.5t11.5 63t16.5 73.5l313 1151h139l313 -1151q9 -33 17 -73.5t11.5 -63t4.5 -22.5h5q14 82 33 159l297 1151h153l-395 -1483h-175l-283 1044q-11 43 -23.5 98t-18.5 90l-7 34h-4q-22 -127 -48 -222l-282 -1044h-175z" />
<glyph unicode="X" horiz-adv-x="1248" d="M55 0l472 775l-430 708h171l259 -439l97 -171h4q43 95 89 171l261 439h174l-435 -708l475 -775h-169l-308 513l-93 164h-4q-44 -88 -91 -166l-303 -511h-169z" />
<glyph unicode="Y" horiz-adv-x="1210" d="M32 1483h167l314 -537q20 -34 42.5 -78.5t35.5 -72.5l13 -28h4q44 100 90 179l314 537h165l-498 -846v-637h-148v637z" />
<glyph unicode="Z" horiz-adv-x="1254" d="M91 0v103l765 1114q25 35 50.5 68.5t39.5 50.5l14 16v5q-36 -5 -108 -5h-721v131h1010v-104l-765 -1113q-25 -36 -51 -69.5t-41 -50.5l-14 -15v-4q38 4 110 4h767v-131h-1056z" />
<glyph unicode="[" horiz-adv-x="594" d="M226 -201v1741h285v-119h-153v-1503h153v-119h-285z" />
<glyph unicode="\" horiz-adv-x="828" d="M72 1566h135l534 -1655h-133z" />
<glyph unicode="]" horiz-adv-x="594" d="M84 -82h152v1503h-152v119h285v-1741h-285v119z" />
<glyph unicode="^" horiz-adv-x="1278" d="M154 527l418 956h99l418 -956h-137l-330 781l-328 -781h-140z" />
<glyph unicode="_" horiz-adv-x="1231" d="M72 0h1088v-123h-1088v123z" />
<glyph unicode="`" d="M376 1838h166l146 -252h-131z" />
<glyph unicode="a" horiz-adv-x="1095" d="M87 289q0 75 27 133.5t67.5 96t103.5 65.5t117 41.5t126 20.5t113.5 8.5t94.5 1.5h59v28q0 274 -264 274q-78 0 -152.5 -26t-110.5 -50l-36 -26l-67 110q6 5 16.5 13.5t47.5 29t77.5 36.5t104.5 29t131 13q192 0 294 -104.5t102 -303.5v-679h-137v116l4 89h-4 q-2 -5 -5.5 -13.5t-18 -32t-32 -45.5t-48 -48.5t-64.5 -46t-82.5 -32.5t-103.5 -13q-54 0 -106 12.5t-97.5 38t-80.5 62.5t-55.5 89t-20.5 113zM234 298q0 -81 62 -141t175 -60q97 0 173 61t113.5 150t37.5 183v47h-61q-47 0 -81 -1t-90 -6t-97 -14t-87 -26.5t-75.5 -42.5 t-49.5 -63.5t-20 -86.5z" />
<glyph unicode="b" horiz-adv-x="1242" d="M173 0v1483h143v-515l-4 -86h4q4 8 11.5 22t37 49.5t67.5 62t103 49t142 22.5q211 0 336.5 -154t125.5 -403.5t-134 -402.5t-345 -153q-71 0 -132.5 21t-99.5 51.5t-65.5 61.5t-39.5 53l-11 20h-4q4 -36 4 -86v-95h-139zM312 527q0 -81 21 -156t62 -136t107 -97.5 t148 -36.5q145 0 243.5 116t98.5 312q0 194 -93 310.5t-243 116.5q-69 0 -129 -25.5t-109 -75.5t-77.5 -134t-28.5 -194z" />
<glyph unicode="c" horiz-adv-x="1157" d="M99 529q0 160 74 288.5t201.5 199t281.5 70.5q73 0 139.5 -15.5t110 -38.5t76.5 -45.5t48 -37.5l14 -16l-74 -107q-5 5 -13.5 14t-39.5 31t-64.5 39t-86 31t-106.5 14q-176 0 -294.5 -119.5t-118.5 -307.5q0 -185 120 -305.5t297 -120.5q61 0 118 15.5t95.5 37.5t68.5 44 t45 38l13 15l65 -112q-6 -7 -17.5 -18t-50.5 -39.5t-83.5 -51t-115.5 -40.5t-146 -18q-156 0 -283 69.5t-200.5 197.5t-73.5 288z" />
<glyph unicode="d" horiz-adv-x="1242" d="M103 531.5q0 249.5 133.5 402.5t343.5 153q72 0 134.5 -21t99.5 -50t63.5 -59t37.5 -51l11 -20h4q-4 36 -4 80v517h143v-1483h-139v112l4 75h-4q-3 -8 -10.5 -22.5t-37.5 -51.5t-67.5 -64.5t-104 -51t-145.5 -23.5q-211 0 -336.5 154t-125.5 403.5zM251 531.5 q0 -194.5 92.5 -311.5t242.5 -117q69 0 129.5 25t109 75t77 134.5t28.5 193.5q0 83 -21 158t-62 136t-106.5 97t-148.5 36q-145 0 -243 -116t-98 -310.5z" />
<glyph unicode="e" horiz-adv-x="1165" d="M99 529q0 128 41 234t112.5 176t166.5 109t203 39q141 0 243.5 -68t151 -177.5t48.5 -244.5l-4 -74h-814q3 -132 60.5 -228.5t148.5 -144t202 -47.5q55 0 108 13.5t90 32t66.5 37.5t43.5 32l15 14l65 -109q-6 -7 -17.5 -16.5t-51.5 -35.5t-82.5 -45.5t-108 -35.5 t-132.5 -16q-239 0 -397 156t-158 399zM253 642h667q-6 158 -90.5 241t-211.5 83q-138 0 -239 -85t-126 -239z" />
<glyph unicode="f" horiz-adv-x="674" d="M89 928v121h132v50q0 100 27.5 175t66.5 116t92.5 65.5t95.5 31.5t85 7l66 -5v-128q-21 4 -50.5 4t-57 -5t-62 -21t-59.5 -43.5t-42.5 -78.5t-17.5 -118v-50h272v-121h-272v-928h-144v928h-132z" />
<glyph unicode="g" horiz-adv-x="1226" d="M103 551q0 241 124.5 388.5t335.5 147.5q79 0 143.5 -18t101.5 -44.5t62.5 -52.5t33.5 -45l10 -18h4q-2 13 -2 37v115h139v-1035q0 -98 -28.5 -178t-76.5 -133.5t-113.5 -89.5t-138 -52t-152.5 -16q-181 0 -347 85l54 118q15 -8 40.5 -20.5t101 -33t145.5 -20.5 q166 0 269 82.5t103 250.5v97l4 76h-4q-98 -186 -336 -186q-212 0 -342.5 152.5t-130.5 392.5zM251 553.5q0 -190.5 95 -304.5t253 -114q66 0 120.5 21.5t99 68.5t70 130t25.5 196q0 405 -336 405q-155 0 -241 -106t-86 -296.5z" />
<glyph unicode="h" horiz-adv-x="1250" d="M173 0v1483h143v-574l-4 -86h4q17 41 51 84.5t85 85t126 68t161 26.5q189 0 271.5 -103.5t82.5 -308.5v-675h-143v637q0 56 -4.5 97.5t-18 84.5t-38.5 70.5t-67.5 45t-102.5 17.5q-135 0 -242 -84t-143 -218q-18 -60 -18 -141v-509h-143z" />
<glyph unicode="i" horiz-adv-x="489" d="M169 1304v179h149v-179h-149zM173 0v1061h143v-1061h-143z" />
<glyph unicode="j" horiz-adv-x="489" d="M-116 -304q18 -2 46 -2q30 0 57.5 4.5t63.5 21.5t61 45t43 80t18 121v1095h143v-1101q0 -100 -27.5 -175.5t-67 -116t-94 -65t-95.5 -31.5t-85 -7q-16 0 -32 1.5t-24 2.5l-7 3v124zM171 1304v179h147v-179h-147z" />
<glyph unicode="k" horiz-adv-x="1058" d="M173 0v1483h143v-827h169l318 405h173l-368 -462v-4l404 -595h-170l-355 531h-171v-531h-143z" />
<glyph unicode="l" horiz-adv-x="520" d="M163 251v1232h143v-1201q0 -94 33.5 -126.5t84.5 -32.5l35 2v-129q-24 -4 -52 -4q-32 0 -60.5 4.5t-63.5 20.5t-60 43t-42.5 76t-17.5 115z" />
<glyph unicode="m" horiz-adv-x="1931" d="M173 0v1061h141v-158l-4 -84h4q38 109 150.5 188.5t233.5 79.5q145 0 224.5 -66.5t104.5 -199.5h4q44 111 152.5 188.5t237.5 77.5q187 0 270 -104t83 -308v-675h-144v640q0 71 -9 123t-32 98t-70.5 70.5t-117.5 24.5q-118 0 -211 -88t-125 -212q-19 -60 -19 -154v-502 h-143v640q0 54 -4 95t-17.5 85t-37 72t-66 46t-99.5 18q-124 0 -218 -91t-129 -221q-16 -67 -16 -142v-502h-143z" />
<glyph unicode="n" horiz-adv-x="1250" d="M173 0v1061h141v-158l-4 -84h4q13 32 35 65.5t59 70.5t83 66t110.5 47.5t137.5 18.5q189 0 271.5 -103.5t82.5 -308.5v-675h-143v637q0 56 -4.5 97.5t-18 84.5t-38.5 70.5t-67.5 45t-102.5 17.5q-135 0 -242 -84t-143 -216q-18 -63 -18 -143v-509h-143z" />
<glyph unicode="o" horiz-adv-x="1311" d="M95 536q0 154 75 280.5t204 198.5t282.5 72t282 -72t203.5 -198.5t75 -280.5q0 -118 -44 -223t-120 -178.5t-179.5 -117t-217.5 -43.5t-217.5 43.5t-179.5 117t-120 178.5t-44 223zM243 536q0 -185 120.5 -309t292.5 -124t292.5 124t120.5 309q0 178 -120.5 299 t-292.5 121t-292.5 -121t-120.5 -299z" />
<glyph unicode="p" horiz-adv-x="1242" d="M173 -422v1483h137v-103l-4 -82h4q3 8 11 22.5t37.5 51t68 64t105 50.5t145.5 23q211 0 336.5 -154t125.5 -403.5t-133.5 -402.5t-341.5 -153q-52 0 -99.5 11.5t-81.5 29t-63 39t-47.5 43.5t-31.5 39.5t-20 29.5l-5 11h-4q4 -38 4 -93v-506h-143zM312 527 q0 -110 37.5 -205t116.5 -158t184 -63q145 0 243.5 116t98.5 312q0 194 -93 310.5t-243 116.5q-69 0 -129 -25.5t-109 -75.5t-77.5 -134t-28.5 -194z" />
<glyph unicode="q" horiz-adv-x="1242" d="M103 531.5q0 249.5 133.5 402.5t343.5 153q52 0 99.5 -11.5t82 -29.5t63.5 -39.5t47.5 -44t31.5 -40.5t19 -29l5 -11h4q-2 34 -2 80v99h139v-1483h-143v511l4 92h-4q-4 -8 -11.5 -22t-37 -50t-67.5 -63t-103 -49.5t-142 -22.5q-211 0 -336.5 154t-125.5 403.5zM251 531.5 q0 -194.5 92.5 -311.5t242.5 -117q69 0 129.5 25t109 75t77 134.5t28.5 193.5q0 83 -21 158t-62 136t-106.5 97t-148.5 36q-145 0 -243 -116t-98 -310.5z" />
<glyph unicode="r" horiz-adv-x="750" d="M173 0v1061h141v-188l-4 -84h4q39 126 127 204t209 78l57 -6v-141q-25 4 -53 4q-108 0 -190 -76t-118 -198q-30 -99 -30 -207v-447h-143z" />
<glyph unicode="s" horiz-adv-x="934" d="M87 129l78 103q5 -5 13.5 -14t39.5 -31t65.5 -39t88 -31t109.5 -14q91 0 152 44.5t61 124.5q0 41 -24.5 74.5t-65 55.5t-91.5 45.5t-105 42.5t-105 47t-91 60.5t-64.5 83t-24.5 112.5q0 136 105.5 215t256.5 79q63 0 119.5 -12t92.5 -29t63.5 -34.5t38.5 -28.5l13 -13 l-65 -109q-4 4 -11 10.5t-32 23.5t-53.5 29.5t-74.5 23t-95 10.5q-89 0 -150 -40.5t-61 -124.5q0 -47 31.5 -83.5t82 -61.5t111.5 -47.5t122 -50.5t111.5 -62.5t82 -89.5t31.5 -126q0 -130 -101.5 -214t-261.5 -84q-72 0 -139 16t-111 39t-78 45.5t-49 38.5z" />
<glyph unicode="t" horiz-adv-x="706" d="M74 928v121h141v305h141v-305h266v-121h-266v-527q0 -60 12 -107.5t32.5 -77t44.5 -49.5t53 -29.5t51.5 -13t45.5 -3.5l49 4v-129q-24 -4 -62 -4q-44 0 -86 6.5t-96 31t-93 64.5t-66.5 115.5t-27.5 176.5v542h-139z" />
<glyph unicode="u" horiz-adv-x="1240" d="M159 386v675h143v-637q0 -56 4 -97.5t18 -84.5t38 -70.5t67 -45t102 -17.5q118 0 209 63.5t137.5 164t46.5 216.5v508h143v-1061h-139v159l4 84h-4q-17 -42 -50.5 -86t-84 -86.5t-124.5 -69.5t-156 -27q-184 0 -269 101t-85 311z" />
<glyph unicode="v" horiz-adv-x="1022" d="M28 1061h151l296 -779l36 -125h4q18 71 38 125l293 779h150l-406 -1061h-155z" />
<glyph unicode="w" horiz-adv-x="1689" d="M36 1061h151l258 -791l32 -113h4q15 62 32 113l262 787h141l261 -787l32 -113h4q15 60 31 113l258 791h152l-359 -1061h-156l-259 755l-34 114h-4q-16 -61 -32 -114l-259 -755h-157z" />
<glyph unicode="x" horiz-adv-x="1035" d="M53 0l373 553l-342 508h169l228 -356l36 -61h2q20 33 36 61l228 356h169l-342 -508l373 -553h-168l-258 399l-36 58h-4h-2q-18 -31 -36 -58l-258 -399h-168z" />
<glyph unicode="y" horiz-adv-x="1051" d="M14 -380l56 114q6 -5 18 -13t45 -21.5t63 -13.5q125 0 201 173l65 149l-443 1053h158l312 -774l38 -112h4q16 60 37 112l305 774h156l-522 -1282q-41 -103 -121.5 -162.5t-184.5 -59.5q-49 0 -95.5 15.5t-68.5 31.5z" />
<glyph unicode="z" horiz-adv-x="1073" d="M89 0v93l593 744l83 97v4q-35 -4 -105 -4h-546v127h846v-95l-593 -742q-18 -23 -39.5 -47.5t-34.5 -36.5l-13 -13v-4q38 4 108 4h593v-127h-892z" />
<glyph unicode="{" horiz-adv-x="708" d="M112 616v131q7 1 19.5 3.5t43.5 18.5t54 39.5t42.5 71.5t19.5 110v172q0 72 13.5 130t34 97t50 67.5t57.5 44t60.5 25t55 12t44.5 2.5h31v-119h-19q-21 0 -41 -3.5t-49 -19t-51 -41.5t-37.5 -77.5t-15.5 -121.5v-206q0 -58 -17.5 -107t-42 -77t-49.5 -48.5t-42 -27.5 l-18 -8v-5q8 -2 19 -7t40 -26t51.5 -47.5t40.5 -76.5t18 -111v-232q0 -69 15.5 -120.5t37.5 -77.5t51 -42t49 -19.5t41 -3.5h19v-119q-13 -2 -31 -2q-33 0 -66 5t-80.5 28.5t-82.5 61.5t-60.5 112t-25.5 173v201q0 62 -18.5 109.5t-44.5 70.5t-52.5 38t-44.5 18z" />
<glyph unicode="|" horiz-adv-x="579" d="M224 -332v1994h132v-1994h-132z" />
<glyph unicode="}" horiz-adv-x="708" d="M72 -84h21q19 0 39 3.5t49 19.5t50.5 42t37 77.5t15.5 120.5v232q0 61 17.5 110.5t42.5 77t49.5 47t42.5 26.5l17 7v5q-7 2 -18.5 7.5t-40 27.5t-51.5 49t-41 76.5t-18 107.5v206q0 58 -10 104t-28 73.5t-38 46t-43.5 26.5t-39.5 10.5t-32 2.5h-21v119h33q26 0 52 -4 t65 -16t71 -39t61.5 -66t46.5 -104.5t17 -148.5v-172q0 -62 18.5 -110t45 -72t52.5 -39t45 -19l18 -3v-131q-7 -1 -19.5 -3.5t-43 -18t-54 -38.5t-43 -70.5t-19.5 -109.5v-201q0 -99 -25 -173t-60 -112t-82.5 -61.5t-80 -28.5t-65.5 -5l-33 2v119z" />
<glyph unicode="~" horiz-adv-x="1268" d="M157 441q0 167 71.5 246.5t195.5 79.5q64 0 114.5 -22.5t83 -55t63 -64.5t70 -54.5t89.5 -22.5q44 0 76 21t47 56t21 67.5t6 66.5h124q0 -167 -72 -246.5t-196 -79.5q-64 0 -114.5 22.5t-83 54.5t-63 64.5t-70 55t-88.5 22.5q-45 0 -77 -21t-46.5 -56t-21 -67.5 t-6.5 -66.5h-123z" />
<glyph unicode="&#xa1;" horiz-adv-x="577" d="M207 898v163h162v-163h-162zM215 -422l6 1095h135l7 -1095h-148z" />
<glyph unicode="&#xa2;" horiz-adv-x="1206" d="M127 743q0 238 116.5 401t326.5 187v177h118v-177q135 -16 235.5 -97.5t159.5 -214.5l-135 -51q-104 228 -314 228q-118 0 -200.5 -61.5t-120 -162t-37.5 -229.5q0 -98 21.5 -180t64.5 -143.5t112.5 -96t159.5 -34.5q211 0 314 228l135 -52q-60 -131 -160 -216.5 t-235 -97.5v-179h-118v179q-210 24 -326.5 188.5t-116.5 403.5z" />
<glyph unicode="&#xa3;" horiz-adv-x="1242" d="M125 0v131h133v557h-93v115h93v315q0 166 123 278t313 112q56 0 110.5 -12.5t92 -30t67.5 -35t44 -29.5l15 -13l-89 -106q-4 3 -11.5 9.5t-33 22t-51.5 26.5t-66 21t-78 10q-134 0 -211.5 -75.5t-77.5 -186.5v-306h405v-115h-405v-557h715v-131h-995z" />
<glyph unicode="&#xa5;" horiz-adv-x="1266" d="M72 1483h166l302 -525q21 -37 44 -85t34 -77l12 -29h4q44 106 92 191l303 525h167l-371 -637h221v-107h-281l-56 -102v-82h337v-110h-337v-445h-148v445h-344v110h344v82l-59 102h-285v107h224z" />
<glyph unicode="&#xa8;" d="M308 1656v182h129v-182h-129zM626 1656v182h131v-182h-131z" />
<glyph unicode="&#xa9;" horiz-adv-x="1752" d="M127 743q0 156 59 298t158.5 244t237.5 162.5t289 60.5q155 0 295 -60.5t241 -162.5t160 -243.5t59 -298.5q0 -159 -59 -301.5t-160 -245t-240.5 -162.5t-295.5 -60q-151 0 -289 60.5t-237.5 162.5t-158.5 244.5t-59 301.5zM251 743q0 -182 81.5 -332t224 -236t314.5 -86 q177 0 322 86t228 235.5t83 332.5q0 180 -83 329.5t-228 236t-322 86.5q-172 0 -314.5 -86.5t-224 -236t-81.5 -329.5zM457 738.5q0 113.5 49.5 210.5t150.5 160.5t235 63.5q65 0 124 -20t97.5 -49t67.5 -58t43 -49l12 -21l-97 -64q-3 6 -10 15.5t-30.5 34.5t-49.5 44.5 t-67.5 35t-85.5 15.5q-146 0 -230 -93.5t-84 -222.5q0 -131 83.5 -224t230.5 -93q44 0 85.5 15t69 36t48.5 43t30 36l10 16l97 -66q-5 -9 -14 -21.5t-41.5 -46.5t-69 -60t-96 -47t-123.5 -21q-134 0 -235 62.5t-150.5 158.5t-49.5 209.5z" />
<glyph unicode="&#xab;" horiz-adv-x="1103" d="M105 595l346 434h155l-346 -434l346 -432h-155zM483 595l346 434h156l-345 -434l345 -432h-156z" />
<glyph unicode="&#xad;" horiz-adv-x="1037" d="M219 534v130h600v-130h-600z" />
<glyph unicode="&#xae;" horiz-adv-x="1752" d="M127 743q0 156 59 298t158.5 244t237.5 162.5t289 60.5q155 0 295 -60.5t241 -162.5t160 -243.5t59 -298.5q0 -159 -59 -301.5t-160 -245t-240.5 -162.5t-295.5 -60q-151 0 -289 60.5t-237.5 162.5t-158.5 244.5t-59 301.5zM251 743q0 -182 81.5 -332t224 -236t314.5 -86 q177 0 322 86t228 235.5t83 332.5q0 180 -83 329.5t-228 236t-322 86.5q-172 0 -314.5 -86.5t-224 -236t-81.5 -329.5zM622 332v822h294q109 0 177.5 -67t68.5 -178q0 -86 -45.5 -143.5t-108.5 -73.5v-4q10 -10 28 -46l158 -310h-131l-165 332h-157v-332h-119zM741 757h153 q67 0 106.5 40.5t39.5 111.5q0 69 -39.5 107.5t-106.5 38.5h-153v-298z" />
<glyph unicode="&#xb4;" d="M376 1586l145 252h167l-181 -252h-131z" />
<glyph unicode="&#xb8;" d="M378 -320q40 -14 89 -14q107 0 107 72q0 34 -32 53t-89 19l-31 -2l55 234l84 -14v-18l-23 -126q66 -10 107 -49t41 -101q0 -85 -58 -126t-145 -41q-28 0 -54 3t-39 6l-12 2v102z" />
<glyph unicode="&#xbb;" horiz-adv-x="1105" d="M118 163l347 432l-347 434h156l346 -434l-346 -432h-156zM497 163l347 432l-347 434h157l346 -434l-346 -432h-157z" />
<glyph unicode="&#xbf;" horiz-adv-x="928" d="M95 -70q0 71 20.5 131.5t54 103.5t74 82t81 75t74 74t54 86.5t20.5 105.5v85h141v-91q0 -66 -20 -124t-52.5 -101t-71.5 -82t-78.5 -75.5t-72 -74.5t-52.5 -86t-20 -102q0 -103 78 -173t198 -70q64 0 128 22t96 45l32 22l77 -105q-5 -6 -15.5 -14t-44 -28.5t-70 -36.5 t-93.5 -29t-116 -13q-181 0 -301.5 105t-120.5 268zM462 898v163h162v-163h-162z" />
<glyph unicode="&#xc1;" horiz-adv-x="1298" d="M28 0l544 1483h156l544 -1483h-154l-170 473h-598l-169 -473h-153zM392 599h511l-194 538q-12 31 -26.5 79t-22.5 80l-8 33h-4q-32 -122 -58 -192zM582 1586l146 252h166l-181 -252h-131z" />
<glyph unicode="&#xc9;" horiz-adv-x="1204" d="M215 0v1483h836v-131h-691v-540h564v-130h-564v-551h729v-131h-874zM588 1586l146 252h166l-181 -252h-131z" />
<glyph unicode="&#xcd;" horiz-adv-x="575" d="M215 0v1483h145v-1483h-145zM219 1586l146 252h166l-181 -252h-131z" />
<glyph unicode="&#xd1;" horiz-adv-x="1588" d="M215 0v1483h141l757 -1068q23 -33 53.5 -83t49.5 -83l20 -34h4q-12 122 -12 200v1068h145v-1483h-141l-757 1067q-23 33 -53.5 83.5t-49.5 83.5l-20 34h-4q12 -123 12 -201v-1067h-145zM467 1592q0 248 193 248q39 0 72 -15.5t56 -38.5t43.5 -45.5t44.5 -38t50 -15.5 q25 0 42.5 14.5t26 38.5t12 47t3.5 46h115q0 -247 -195 -247q-47 0 -87.5 24t-63 51.5t-53.5 51.5t-62 24q-24 0 -41.5 -14.5t-26 -38.5t-11.5 -46t-3 -46h-115z" />
<glyph unicode="&#xd3;" horiz-adv-x="1737" d="M114 751q0 156 59.5 297.5t160.5 241.5t240.5 159t295 59t295 -59t240.5 -159t160 -241.5t59 -297.5q0 -160 -59 -304t-160 -247.5t-241 -164.5t-294.5 -61t-294.5 61t-241 164.5t-160.5 247.5t-59.5 304zM266 751q0 -134 47 -253t128 -204.5t193 -135t235.5 -49.5 t234.5 50t192 135t129 204t48 253q0 174 -81 317t-219.5 224t-303.5 81q-124 0 -235.5 -48t-192.5 -130t-128 -197.5t-47 -246.5zM799 1586l147 252h165l-181 -252h-131z" />
<glyph unicode="&#xda;" horiz-adv-x="1526" d="M196 517v966h148v-964q0 -190 113.5 -300t305.5 -110q194 0 308.5 111t114.5 303v960h145v-966q0 -245 -156 -394t-410 -149t-411.5 149t-157.5 394zM696 1586l146 252h166l-181 -252h-131z" />
<glyph unicode="&#xdc;" horiz-adv-x="1526" d="M196 517v966h148v-964q0 -190 113.5 -300t305.5 -110q194 0 308.5 111t114.5 303v960h145v-966q0 -245 -156 -394t-410 -149t-411.5 149t-157.5 394zM540 1656v182h128v-182h-128zM859 1656v182h131v-182h-131z" />
<glyph unicode="&#xe1;" horiz-adv-x="1095" d="M87 289q0 75 27 133.5t67.5 96t103.5 65.5t117 41.5t126 20.5t113.5 8.5t94.5 1.5h59v28q0 274 -264 274q-78 0 -152.5 -26t-110.5 -50l-36 -26l-67 110q6 5 16.5 13.5t47.5 29t77.5 36.5t104.5 29t131 13q192 0 294 -104.5t102 -303.5v-679h-137v116l4 89h-4 q-2 -5 -5.5 -13.5t-18 -32t-32 -45.5t-48 -48.5t-64.5 -46t-82.5 -32.5t-103.5 -13q-54 0 -106 12.5t-97.5 38t-80.5 62.5t-55.5 89t-20.5 113zM234 298q0 -81 62 -141t175 -60q97 0 173 61t113.5 150t37.5 183v47h-61q-47 0 -81 -1t-90 -6t-97 -14t-87 -26.5t-75.5 -42.5 t-49.5 -63.5t-20 -86.5zM475 1232l145 251h167l-181 -251h-131z" />
<glyph unicode="&#xe9;" horiz-adv-x="1165" d="M99 529q0 128 41 234t112.5 176t166.5 109t203 39q141 0 243.5 -68t151 -177.5t48.5 -244.5l-4 -74h-814q3 -132 60.5 -228.5t148.5 -144t202 -47.5q55 0 108 13.5t90 32t66.5 37.5t43.5 32l15 14l65 -109q-6 -7 -17.5 -16.5t-51.5 -35.5t-82.5 -45.5t-108 -35.5 t-132.5 -16q-239 0 -397 156t-158 399zM253 642h667q-6 158 -90.5 241t-211.5 83q-138 0 -239 -85t-126 -239zM555 1232l145 251h167l-181 -251h-131z" />
<glyph unicode="&#xed;" horiz-adv-x="489" d="M173 0v1061h143v-1061h-143zM177 1232l145 251h167l-181 -251h-131z" />
<glyph unicode="&#xf1;" horiz-adv-x="1250" d="M173 0v1061h141v-158l-4 -84h4q13 32 35 65.5t59 70.5t83 66t110.5 47.5t137.5 18.5q189 0 271.5 -103.5t82.5 -308.5v-675h-143v637q0 56 -4.5 97.5t-18 84.5t-38.5 70.5t-67.5 45t-102.5 17.5q-135 0 -242 -84t-143 -216q-18 -63 -18 -143v-509h-143zM327 1238 q0 247 194 247q39 0 72 -15.5t56 -38t43.5 -45t44.5 -38t50 -15.5q25 0 42.5 14.5t26 38.5t12 46.5t3.5 46.5h114q0 -247 -194 -247q-39 0 -72 15.5t-55.5 37t-43.5 43.5t-45 37.5t-50 15.5q-32 0 -52 -25.5t-25 -54.5t-5 -63h-116z" />
<glyph unicode="&#xf3;" horiz-adv-x="1311" d="M95 536q0 154 75 280.5t204 198.5t282.5 72t282 -72t203.5 -198.5t75 -280.5q0 -118 -44 -223t-120 -178.5t-179.5 -117t-217.5 -43.5t-217.5 43.5t-179.5 117t-120 178.5t-44 223zM243 536q0 -185 120.5 -309t292.5 -124t292.5 124t120.5 309q0 178 -120.5 299 t-292.5 121t-292.5 -121t-120.5 -299zM588 1232l146 251h166l-181 -251h-131z" />
<glyph unicode="&#xfa;" horiz-adv-x="1240" d="M159 386v675h143v-637q0 -56 4 -97.5t18 -84.5t38 -70.5t67 -45t102 -17.5q118 0 209 63.5t137.5 164t46.5 216.5v508h143v-1061h-139v159l4 84h-4q-17 -42 -50.5 -86t-84 -86.5t-124.5 -69.5t-156 -27q-184 0 -269 101t-85 311zM544 1232l146 251h166l-181 -251h-131z " />
<glyph unicode="&#xfc;" horiz-adv-x="1240" d="M159 386v675h143v-637q0 -56 4 -97.5t18 -84.5t38 -70.5t67 -45t102 -17.5q118 0 209 63.5t137.5 164t46.5 216.5v508h143v-1061h-139v159l4 84h-4q-17 -42 -50.5 -86t-84 -86.5t-124.5 -69.5t-156 -27q-184 0 -269 101t-85 311zM390 1302v181h129v-181h-129zM709 1302 v181h130v-181h-130z" />
<glyph unicode="&#x2c6;" d="M276 1586l175 252h159l177 -252h-139l-114 171h-5l-114 -171h-139z" />
<glyph unicode="&#x2dc;" d="M203 1592q0 248 194 248q39 0 72 -15.5t55.5 -38.5t43 -45.5t45 -38t49.5 -15.5t42.5 14.5t26.5 38.5t12.5 47t3.5 46h114q0 -247 -195 -247q-47 0 -87 24t-63 51.5t-53.5 51.5t-61.5 24q-25 0 -42.5 -14.5t-26 -38.5t-11.5 -46t-3 -46h-115z" />
<glyph unicode="&#x2000;" horiz-adv-x="920" />
<glyph unicode="&#x2001;" horiz-adv-x="1840" />
<glyph unicode="&#x2002;" horiz-adv-x="920" />
<glyph unicode="&#x2003;" horiz-adv-x="1840" />
<glyph unicode="&#x2004;" horiz-adv-x="613" />
<glyph unicode="&#x2005;" horiz-adv-x="460" />
<glyph unicode="&#x2006;" horiz-adv-x="306" />
<glyph unicode="&#x2007;" horiz-adv-x="306" />
<glyph unicode="&#x2008;" horiz-adv-x="230" />
<glyph unicode="&#x2009;" horiz-adv-x="368" />
<glyph unicode="&#x200a;" horiz-adv-x="102" />
<glyph unicode="&#x2010;" horiz-adv-x="1037" d="M219 534v130h600v-130h-600z" />
<glyph unicode="&#x2011;" horiz-adv-x="1037" d="M219 534v130h600v-130h-600z" />
<glyph unicode="&#x2012;" horiz-adv-x="1037" d="M219 534v130h600v-130h-600z" />
<glyph unicode="&#x2013;" horiz-adv-x="1492" d="M219 538v122h1055v-122h-1055z" />
<glyph unicode="&#x2014;" horiz-adv-x="1914" d="M219 538v122h1477v-122h-1477z" />
<glyph unicode="&#x2018;" horiz-adv-x="453" d="M118 1139l120 363h114l-82 -363h-152z" />
<glyph unicode="&#x2019;" horiz-adv-x="440" d="M121 1141l82 363h151l-118 -363h-115z" />
<glyph unicode="&#x201a;" horiz-adv-x="501" d="M107 -190l83 363h150l-119 -363h-114z" />
<glyph unicode="&#x201c;" horiz-adv-x="706" d="M118 1139l120 363h114l-82 -363h-152zM371 1139l118 363h117l-83 -363h-152z" />
<glyph unicode="&#x201d;" horiz-adv-x="693" d="M121 1141l82 363h151l-118 -363h-115zM373 1141l82 363h153l-119 -363h-116z" />
<glyph unicode="&#x201e;" horiz-adv-x="750" d="M107 -190l83 363h150l-119 -363h-114zM356 -190l83 363h149l-117 -363h-115z" />
<glyph unicode="&#x2026;" horiz-adv-x="1507" d="M177 0v169h163v-169h-163zM673 0v169h162v-169h-162zM1169 0v169h162v-169h-162z" />
<glyph unicode="&#x202f;" horiz-adv-x="368" />
<glyph unicode="&#x2039;" horiz-adv-x="723" d="M105 595l346 434h155l-346 -434l346 -432h-155z" />
<glyph unicode="&#x203a;" horiz-adv-x="725" d="M118 163l347 432l-347 434h156l346 -434l-346 -432h-156z" />
<glyph unicode="&#x205f;" horiz-adv-x="460" />
<glyph unicode="&#x20ac;" horiz-adv-x="1244" d="M87 561v107h116q-5 29 -5 81t5 90h-116v109h134q63 248 257.5 404t451.5 156q51 0 101.5 -6t74.5 -13l25 -6l-36 -137q-78 23 -167 23q-200 0 -347.5 -115.5t-202.5 -305.5h645l-21 -109h-648q-12 -79 -2 -171h618l-20 -107h-574q49 -199 200 -323t356 -124q46 0 93 7.5 t71 14.5l24 7l34 -137q-97 -32 -224 -32q-266 0 -461 163.5t-252 423.5h-130z" />
<glyph unicode="&#x2122;" horiz-adv-x="1965" d="M57 1373v110h780v-110h-330v-814h-121v814h-329zM914 559l73 924h110l242 -529q8 -18 15.5 -39.5t11.5 -34.5l3 -13h4q11 47 30 87l242 529h110l72 -924h-116l-53 627l2 60h-4l-237 -514h-96l-236 514h-4l2 -60l-54 -627h-117z" />
<glyph unicode="&#xe000;" horiz-adv-x="1060" d="M0 0v1061h1061v-1061h-1061z" />
</font>
</defs>
</svg>
